<svg width="20" height="29" viewBox="0 0 20 29" fill="none" xmlns="http://www.w3.org/2000/svg">
<path d="M10 0C4.47502 0 0 4.4775 0 10C0 12.2435 0.738626 14.3147 1.98645 15.9831L8.40077 27.0934C8.438 27.165 8.47523 27.2363 8.52097 27.3019L8.53516 27.3263L8.53906 27.3242C8.86671 27.7774 9.39399 28.0728 10.0053 28.0728C10.5571 28.0728 11.0379 27.8217 11.3687 27.4348L11.3854 27.4444L11.4489 27.3345C11.5425 27.2083 11.6255 27.0735 11.6854 26.9249L17.9696 16.0395C19.2433 14.3612 20 12.2694 20 10C20 4.4775 15.525 0 10 0ZM9.90107 15.0697C7.17882 15.0697 4.97394 12.8637 4.97394 10.1425C4.97394 7.42172 7.17882 5.21542 9.90107 5.21542C12.6233 5.21542 14.8282 7.42172 14.8282 10.1425C14.8282 12.8634 12.6233 15.0697 9.90107 15.0697Z" fill="#545454"/>
</svg>
